<svg xmlns="http://www.w3.org/2000/svg" aria-hidden="true" focusable="false" data-prefix="fas" data-icon="desktop" role="img" width="20" height="20" style=""><rect id="backgroundrect" width="100%" height="100%" x="0" y="0" fill="none" stroke="none" class="" style=""/><g class="currentLayer" style=""><title>Layer 1</title><path fill="#ffffff" d="M15.920853807541473,3.5392980851481344 H4.07914737102163 C3.4253864948387727,3.5392980851481344 2.894976727369645,4.081896095986278 2.894976727369645,4.750679690740271 v8.075877370614236 c0,0.6687835947539916 0.5304097674691186,1.2113816055921354 1.1841706436519845,1.2113816055921354 h4.736682574607938 l-0.3947235478839957,1.2113816055921354 h-1.7762559654779775 c-0.3281139491785714,0 -0.5920853218259926,0.27003714957991376 -0.5920853218259926,0.6056908027960689 s0.2639713726474222,0.6056908027960689 0.5920853218259926,0.6056908027960689 h6.710300314027913 c0.3281139491785714,0 0.5920853218259926,-0.27003714957991376 0.5920853218259926,-0.6056908027960689 s-0.2639713726474222,-0.6056908027960689 -0.5920853218259926,-0.6056908027960689 h-1.7762559654779775 l-0.3947235478839957,-1.2113816055921354 h4.736682574607938 c0.6537608761828677,0 1.1841706436519845,-0.5425980108381455 1.1841706436519845,-1.2113816055921354 V4.750679690740271 c0,-0.6687835947539916 -0.5304097674691186,-1.2113816055921354 -1.1841706436519845,-1.2113816055921354 zm-0.3947235478839957,8.88346510767566 H4.473870918905629 V5.154473559270983 h11.052259340751858 v7.268289633552812 z" id="svg_1" class="" stroke="#ffffff" stroke-opacity="1" fill-opacity="1"/></g></svg>